<svg
        xmlns="http://www.w3.org/2000/svg"
        width="900"
        height="320"
        viewBox="0 0 900 320">

    <defs>

        <linearGradient
            id="background"
            x1="0"
            y1="0"
            x2="0"
            y2="1">

            <stop
                offset="0%"
                stop-color="#1a1b26"/>

            <stop
                offset="100%"
                stop-color="#16161e"/>

        </linearGradient>


        <linearGradient
            id="floor"
            x1="0"
            y1="0"
            x2="0"
            y2="1">

            <stop
                offset="0%"
                stop-color="#24283b"/>

            <stop
                offset="100%"
                stop-color="#16161e"/>

        </linearGradient>

    </defs>


    <!-- ================================================== -->
    <!-- BACKGROUND -->
    <!-- ================================================== -->

    <rect
        width="900"
        height="320"
        fill="url(#background)"/>


    <!-- ================================================== -->
    <!-- ESTRELAS -->
    <!-- ================================================== -->

    <g
        fill="#9aa5ce"
        opacity="0.75">

        <circle cx="250" cy="28" r="1"/>
        <circle cx="355" cy="54" r="1"/>
        <circle cx="438" cy="25" r="1"/>
        <circle cx="520" cy="70" r="1"/>
        <circle cx="612" cy="38" r="1"/>
        <circle cx="695" cy="60" r="1"/>
        <circle cx="815" cy="35" r="1"/>

    </g>


    <!-- ================================================== -->
    <!-- TÍTULO -->
    <!-- ================================================== -->

    <text
        x="28"
        y="28"
        fill="#7aa2f7"
        font-family="Arial, sans-serif"
        font-size="16"
        font-weight="bold">

        Contribution Skyline

    </text>


    <text
        x="28"
        y="47"
        fill="#bb9af7"
        font-family="monospace"
        font-size="8"
        letter-spacing="3">

        180 DAYS · IARLEI-BARROS

    </text>


    <!-- ================================================== -->
    <!-- ÁREA DO GRÁFICO -->
    <!-- ================================================== -->

    <path
        d="M25 268
           L510 268
           L540 252
           L540 75"
        fill="none"
        stroke="#292e42"
        stroke-width="1"/>


    <!-- Piso -->

    <path
        d="M25 268
           L510 268
           L540 252
           L25 252
           Z"
        fill="url(#floor)"
        stroke="#292e42"
        stroke-width="1"/>


    <!-- Linha principal -->

    <line
        x1="25"
        y1="268"
        x2="510"
        y2="268"
        stroke="#565f89"
        stroke-width="1"
        opacity="0.7"/>


    <!-- ================================================== -->
    <!-- TORRES -->
    <!-- ================================================== -->

    <polygon
        points="62,240.0 69,236.15 69,254.15 62,258"
        fill="#1f2335"
        stroke="#292e42"
        stroke-width="1"/>

    <polygon
        points="42,240.0 62,240.0 69,236.15 49,236.15"
        fill="#3b4261"
        stroke="#292e42"
        stroke-width="1"/>

    <polygon
        points="42,240.0 62,240.0 62,258 42,258"
        fill="#292e42"
        stroke="#292e42"
        stroke-width="1"/>
    
    <polygon
        points="87,240.0 94,236.15 94,254.15 87,258"
        fill="#1f2335"
        stroke="#292e42"
        stroke-width="1"/>

    <polygon
        points="67,240.0 87,240.0 94,236.15 74,236.15"
        fill="#3b4261"
        stroke="#292e42"
        stroke-width="1"/>

    <polygon
        points="67,240.0 87,240.0 87,258 67,258"
        fill="#292e42"
        stroke="#292e42"
        stroke-width="1"/>
    
    <polygon
        points="112,240.0 119,236.15 119,254.15 112,258"
        fill="#1f2335"
        stroke="#292e42"
        stroke-width="1"/>

    <polygon
        points="92,240.0 112,240.0 119,236.15 99,236.15"
        fill="#3b4261"
        stroke="#292e42"
        stroke-width="1"/>

    <polygon
        points="92,240.0 112,240.0 112,258 92,258"
        fill="#292e42"
        stroke="#292e42"
        stroke-width="1"/>
    
    <polygon
        points="137,215.0 144,211.15 144,254.15 137,258"
        fill="#3d59a1"
        stroke="#292e42"
        stroke-width="1"/>

    <polygon
        points="117,215.0 137,215.0 144,211.15 124,211.15"
        fill="#9db8ff"
        stroke="#292e42"
        stroke-width="1"/>

    <polygon
        points="117,215.0 137,215.0 137,258 117,258"
        fill="#7aa2f7"
        stroke="#292e42"
        stroke-width="1"/>
    
    <polygon
        points="162,240.0 169,236.15 169,254.15 162,258"
        fill="#1f2335"
        stroke="#292e42"
        stroke-width="1"/>

    <polygon
        points="142,240.0 162,240.0 169,236.15 149,236.15"
        fill="#3b4261"
        stroke="#292e42"
        stroke-width="1"/>

    <polygon
        points="142,240.0 162,240.0 162,258 142,258"
        fill="#292e42"
        stroke="#292e42"
        stroke-width="1"/>
    
    <polygon
        points="187,240.0 194,236.15 194,254.15 187,258"
        fill="#1f2335"
        stroke="#292e42"
        stroke-width="1"/>

    <polygon
        points="167,240.0 187,240.0 194,236.15 174,236.15"
        fill="#3b4261"
        stroke="#292e42"
        stroke-width="1"/>

    <polygon
        points="167,240.0 187,240.0 187,258 167,258"
        fill="#292e42"
        stroke="#292e42"
        stroke-width="1"/>
    
    <polygon
        points="212,240.0 219,236.15 219,254.15 212,258"
        fill="#1f2335"
        stroke="#292e42"
        stroke-width="1"/>

    <polygon
        points="192,240.0 212,240.0 219,236.15 199,236.15"
        fill="#3b4261"
        stroke="#292e42"
        stroke-width="1"/>

    <polygon
        points="192,240.0 212,240.0 212,258 192,258"
        fill="#292e42"
        stroke="#292e42"
        stroke-width="1"/>
    
    <polygon
        points="237,240.0 244,236.15 244,254.15 237,258"
        fill="#1f2335"
        stroke="#292e42"
        stroke-width="1"/>

    <polygon
        points="217,240.0 237,240.0 244,236.15 224,236.15"
        fill="#3b4261"
        stroke="#292e42"
        stroke-width="1"/>

    <polygon
        points="217,240.0 237,240.0 237,258 217,258"
        fill="#292e42"
        stroke="#292e42"
        stroke-width="1"/>
    
    <polygon
        points="262,240.0 269,236.15 269,254.15 262,258"
        fill="#1f2335"
        stroke="#292e42"
        stroke-width="1"/>

    <polygon
        points="242,240.0 262,240.0 269,236.15 249,236.15"
        fill="#3b4261"
        stroke="#292e42"
        stroke-width="1"/>

    <polygon
        points="242,240.0 262,240.0 262,258 242,258"
        fill="#292e42"
        stroke="#292e42"
        stroke-width="1"/>
    
    <polygon
        points="287,240.0 294,236.15 294,254.15 287,258"
        fill="#1f2335"
        stroke="#292e42"
        stroke-width="1"/>

    <polygon
        points="267,240.0 287,240.0 294,236.15 274,236.15"
        fill="#3b4261"
        stroke="#292e42"
        stroke-width="1"/>

    <polygon
        points="267,240.0 287,240.0 287,258 267,258"
        fill="#292e42"
        stroke="#292e42"
        stroke-width="1"/>
    
    <polygon
        points="312,240.0 319,236.15 319,254.15 312,258"
        fill="#1f2335"
        stroke="#292e42"
        stroke-width="1"/>

    <polygon
        points="292,240.0 312,240.0 319,236.15 299,236.15"
        fill="#3b4261"
        stroke="#292e42"
        stroke-width="1"/>

    <polygon
        points="292,240.0 312,240.0 312,258 292,258"
        fill="#292e42"
        stroke="#292e42"
        stroke-width="1"/>
    
    <polygon
        points="337,240.0 344,236.15 344,254.15 337,258"
        fill="#1f2335"
        stroke="#292e42"
        stroke-width="1"/>

    <polygon
        points="317,240.0 337,240.0 344,236.15 324,236.15"
        fill="#3b4261"
        stroke="#292e42"
        stroke-width="1"/>

    <polygon
        points="317,240.0 337,240.0 337,258 317,258"
        fill="#292e42"
        stroke="#292e42"
        stroke-width="1"/>
    
    <polygon
        points="362,240.0 369,236.15 369,254.15 362,258"
        fill="#1f2335"
        stroke="#292e42"
        stroke-width="1"/>

    <polygon
        points="342,240.0 362,240.0 369,236.15 349,236.15"
        fill="#3b4261"
        stroke="#292e42"
        stroke-width="1"/>

    <polygon
        points="342,240.0 362,240.0 362,258 342,258"
        fill="#292e42"
        stroke="#292e42"
        stroke-width="1"/>
    
    <polygon
        points="387,95.0 394,91.15 394,254.15 387,258"
        fill="#a33e5f"
        stroke="#292e42"
        stroke-width="1"/>

    <polygon
        points="367,95.0 387,95.0 394,91.15 374,91.15"
        fill="#ff9db2"
        stroke="#292e42"
        stroke-width="1"/>

    <polygon
        points="367,95.0 387,95.0 387,258 367,258"
        fill="#f7768e"
        stroke="#292e42"
        stroke-width="1"/>
    
    <polygon
        points="412,210.0 419,206.15 419,254.15 412,258"
        fill="#3d59a1"
        stroke="#292e42"
        stroke-width="1"/>

    <polygon
        points="392,210.0 412,210.0 419,206.15 399,206.15"
        fill="#9db8ff"
        stroke="#292e42"
        stroke-width="1"/>

    <polygon
        points="392,210.0 412,210.0 412,258 392,258"
        fill="#7aa2f7"
        stroke="#292e42"
        stroke-width="1"/>
    
    <polygon
        points="437,225.0 444,221.15 444,254.15 437,258"
        fill="#3d59a1"
        stroke="#292e42"
        stroke-width="1"/>

    <polygon
        points="417,225.0 437,225.0 444,221.15 424,221.15"
        fill="#9db8ff"
        stroke="#292e42"
        stroke-width="1"/>

    <polygon
        points="417,225.0 437,225.0 437,258 417,258"
        fill="#7aa2f7"
        stroke="#292e42"
        stroke-width="1"/>
    
    <polygon
        points="462,240.0 469,236.15 469,254.15 462,258"
        fill="#1f2335"
        stroke="#292e42"
        stroke-width="1"/>

    <polygon
        points="442,240.0 462,240.0 469,236.15 449,236.15"
        fill="#3b4261"
        stroke="#292e42"
        stroke-width="1"/>

    <polygon
        points="442,240.0 462,240.0 462,258 442,258"
        fill="#292e42"
        stroke="#292e42"
        stroke-width="1"/>
    
    <polygon
        points="487,200.0 494,196.15 494,254.15 487,258"
        fill="#2b7f91"
        stroke="#292e42"
        stroke-width="1"/>

    <polygon
        points="467,200.0 487,200.0 494,196.15 474,196.15"
        fill="#a8e8f5"
        stroke="#292e42"
        stroke-width="1"/>

    <polygon
        points="467,200.0 487,200.0 487,258 467,258"
        fill="#7dcfff"
        stroke="#292e42"
        stroke-width="1"/>
    

    <!-- ================================================== -->
    <!-- DIVISÓRIA -->
    <!-- ================================================== -->

    <line
        x1="565"
        y1="38"
        x2="565"
        y2="250"
        stroke="#292e42"
        stroke-width="1"/>


    <!-- ================================================== -->
    <!-- ACTIVITY -->
    <!-- ================================================== -->

    <text
        x="592"
        y="62"
        fill="#bb9af7"
        font-family="monospace"
        font-size="9"
        letter-spacing="3">

        — ACTIVITY

    </text>


    <!-- LOW -->

    <rect
        x="592"
        y="85"
        width="11"
        height="11"
        rx="1"
        fill="#7aa2f7"/>

    <text
        x="615"
        y="94"
        fill="#c0caf5"
        font-family="monospace"
        font-size="9">

        low · activity

    </text>


    <!-- MID -->

    <rect
        x="592"
        y="106"
        width="11"
        height="11"
        rx="1"
        fill="#7dcfff"/>

    <text
        x="615"
        y="115"
        fill="#c0caf5"
        font-family="monospace"
        font-size="9">

        mid · activity

    </text>


    <!-- HIGH -->

    <rect
        x="592"
        y="127"
        width="11"
        height="11"
        rx="1"
        fill="#bb9af7"/>

    <text
        x="615"
        y="136"
        fill="#c0caf5"
        font-family="monospace"
        font-size="9">

        high · activity

    </text>


    <!-- PEAK -->

    <rect
        x="592"
        y="148"
        width="11"
        height="11"
        rx="1"
        fill="#f7768e"/>

    <text
        x="615"
        y="157"
        fill="#c0caf5"
        font-family="monospace"
        font-size="9">

        peak · activity

    </text>


    <!-- ================================================== -->
    <!-- SEPARADOR -->
    <!-- ================================================== -->

    <line
        x1="592"
        y1="177"
        x2="820"
        y2="177"
        stroke="#292e42"
        stroke-width="1"/>


    <!-- ================================================== -->
    <!-- PROFILE -->
    <!-- ================================================== -->

    <text
        x="592"
        y="201"
        fill="#bb9af7"
        font-family="monospace"
        font-size="9"
        letter-spacing="3">

        — PROFILE

    </text>


    <!-- Contributions -->

    <text
        x="592"
        y="224"
        fill="#c0caf5"
        font-family="monospace"
        font-size="9">

        contributions

    </text>

    <text
        x="815"
        y="224"
        fill="#7dcfff"
        font-family="monospace"
        font-size="10"
        font-weight="bold"
        text-anchor="end">

        51

    </text>


    <!-- Active days -->

    <text
        x="592"
        y="242"
        fill="#c0caf5"
        font-family="monospace"
        font-size="9">

        active days

    </text>

    <text
        x="815"
        y="242"
        fill="#f7768e"
        font-family="monospace"
        font-size="10"
        font-weight="bold"
        text-anchor="end">

        10

    </text>


    <!-- ================================================== -->
    <!-- RODAPÉ -->
    <!-- ================================================== -->

    <text
        x="28"
        y="298"
        fill="#9aa5ce"
        opacity="0.7"
        font-family="monospace"
        font-size="7"
        letter-spacing="2">

        IARLEI-BARROS · CONTRIBUTION SKYLINE

    </text>


    <text
        x="815"
        y="298"
        fill="#7aa2f7"
        font-family="monospace"
        font-size="7"
        font-weight="bold"
        letter-spacing="2"
        text-anchor="end">

        TOKYO NIGHT

    </text>


</svg>
